
<svg width="202" height="181" viewBox="0 0 202 181" fill="none" xmlns="http://www.w3.org/2000/svg">
<rect width="202" height="181" rx="8" fill="#1D2E56"/>
<path d="M27.24 35.96V62H30V33.36H21.4V35.96H27.24ZM40.4431 35.96V62H43.2031V33.36H34.6031V35.96H40.4431ZM69.3625 55.92V53.36H66.0025V33.36H62.1625L48.1625 53.36V55.92H63.2025V62H66.0025V55.92H69.3625ZM51.2825 53.36L63.2025 36.32V53.36H51.2825ZM76.4806 62L87.9206 32.8H83.0406L71.6406 62H76.4806ZM98.2897 47.52C102.37 47.52 104.29 49.68 104.29 52.64C104.29 55.88 102.17 57.96 98.9697 57.96C95.8497 57.96 93.7697 56.04 93.7697 52.68H88.7297C88.7297 59 93.1697 62.52 98.8897 62.52C104.81 62.52 109.49 58.72 109.49 52.72C109.49 47.56 106.01 44.28 101.53 43.4L108.65 36.84V32.76H90.0897V37.28H102.25L94.7297 44.2V47.52H98.2897ZM112.423 47.44C112.423 56.48 117.023 62.52 124.783 62.52C132.543 62.52 137.183 56.48 137.183 47.44C137.183 38.36 132.263 32.2 124.783 32.2C117.303 32.2 112.423 38.36 112.423 47.44ZM117.463 47.44C117.463 40.52 120.183 36.72 124.783 36.72C129.423 36.72 132.143 40.52 132.143 47.44C132.143 54.2 129.423 58 124.783 58C120.183 58 117.463 54.2 117.463 47.44ZM140.626 47.44C140.626 56.48 145.226 62.52 152.986 62.52C160.746 62.52 165.386 56.48 165.386 47.44C165.386 38.36 160.466 32.2 152.986 32.2C145.506 32.2 140.626 38.36 140.626 47.44ZM145.666 47.44C145.666 40.52 148.386 36.72 152.986 36.72C157.626 36.72 160.346 40.52 160.346 47.44C160.346 54.2 157.626 58 152.986 58C148.386 58 145.666 54.2 145.666 47.44Z" fill="white"/>
<rect x="20" y="94" width="24" height="24" rx="12" fill="#2AD399"/>
<rect x="20" y="94" width="24" height="24" rx="12" stroke="#D4D4D4"/>
<path d="M28.7204 106C28.5328 105.831 28.2883 105.74 28.0359 105.744C27.7836 105.748 27.5421 105.847 27.3599 106.022C27.1776 106.196 27.0682 106.433 27.0535 106.685C27.0387 106.937 27.1198 107.185 27.2804 107.38L29.5004 109.71C29.5934 109.808 29.7051 109.885 29.8288 109.939C29.9525 109.992 30.0857 110.02 30.2204 110.02C30.3544 110.021 30.4872 109.995 30.6109 109.943C30.7346 109.892 30.8467 109.816 30.9404 109.72L37.7204 102.72C37.8124 102.626 37.8848 102.514 37.9335 102.391C37.9823 102.269 38.0064 102.138 38.0045 102.006C38.0027 101.874 37.9749 101.744 37.9227 101.623C37.8705 101.502 37.795 101.392 37.7004 101.3C37.6059 101.208 37.4942 101.136 37.3716 101.087C37.2491 101.038 37.1182 101.014 36.9863 101.016C36.8544 101.018 36.7242 101.046 36.6031 101.098C36.482 101.15 36.3724 101.226 36.2804 101.32L30.2304 107.58L28.7204 106Z" fill="white"/>
<g clip-path="url(#clip0_1045_35980)">
<path fill-rule="evenodd" clip-rule="evenodd" d="M69.9784 104.021C69.9784 105.646 68.6242 107 66.9992 107C65.3742 107 64.0201 105.646 64.0201 104.021C64.0201 102.396 65.3742 101.042 66.9992 101.042C68.6242 101.042 69.9784 102.396 69.9784 104.021ZM68.3534 104.021C68.3534 103.262 67.7576 102.667 66.9992 102.667C66.2409 102.667 65.6451 103.262 65.6451 104.021C65.6451 104.779 66.2409 105.375 66.9992 105.375C67.7576 105.375 68.3534 104.779 68.3534 104.021ZM65.374 108.083H68.624C70.4115 108.083 71.874 109.545 71.874 111.333V112.958H70.249V111.333C70.249 110.412 69.4907 109.708 68.624 109.708H65.374C64.5074 109.708 63.749 110.412 63.749 111.333V112.958H62.124V111.333C62.124 109.545 63.5865 108.083 65.374 108.083Z" fill="#EDF5FD"/>
<path fill-rule="evenodd" clip-rule="evenodd" d="M69.9784 104.021C69.9784 105.666 68.6446 107 66.9992 107C65.3539 107 64.0201 105.666 64.0201 104.021C64.0201 102.375 65.3539 101.042 66.9992 101.042C68.6446 101.042 69.9784 102.375 69.9784 104.021ZM65.374 108.083H68.624C70.4115 108.083 71.874 109.545 71.874 111.333V112.958H62.124V111.333C62.124 109.545 63.5865 108.083 65.374 108.083Z" fill="#EDF5FD"/>
</g>
<rect x="90" y="102" width="92" height="10" rx="5" fill="#C1D0F2"/>
<rect x="20" y="135" width="24" height="24" rx="12" fill="#2AD399"/>
<rect x="20" y="135" width="24" height="24" rx="12" stroke="#D4D4D4"/>
<path d="M28.7204 147C28.5328 146.831 28.2883 146.74 28.0359 146.744C27.7836 146.748 27.5421 146.847 27.3599 147.022C27.1776 147.196 27.0682 147.433 27.0535 147.685C27.0387 147.937 27.1198 148.185 27.2804 148.38L29.5004 150.71C29.5934 150.808 29.7051 150.885 29.8288 150.939C29.9525 150.992 30.0857 151.02 30.2204 151.02C30.3544 151.021 30.4872 150.995 30.6109 150.943C30.7346 150.892 30.8467 150.816 30.9404 150.72L37.7204 143.72C37.8124 143.626 37.8848 143.514 37.9335 143.391C37.9823 143.269 38.0064 143.138 38.0045 143.006C38.0027 142.874 37.9749 142.744 37.9227 142.623C37.8705 142.502 37.795 142.392 37.7004 142.3C37.6059 142.208 37.4942 142.136 37.3716 142.087C37.2491 142.038 37.1182 142.014 36.9863 142.016C36.8544 142.018 36.7242 142.046 36.6031 142.098C36.482 142.15 36.3724 142.226 36.2804 142.32L30.2304 148.58L28.7204 147Z" fill="white"/>
<g clip-path="url(#clip1_1045_35980)">
<path fill-rule="evenodd" clip-rule="evenodd" d="M69.9784 145.021C69.9784 146.646 68.6242 148 66.9992 148C65.3742 148 64.0201 146.646 64.0201 145.021C64.0201 143.396 65.3742 142.042 66.9992 142.042C68.6242 142.042 69.9784 143.396 69.9784 145.021ZM68.3534 145.021C68.3534 144.262 67.7576 143.667 66.9992 143.667C66.2409 143.667 65.6451 144.262 65.6451 145.021C65.6451 145.779 66.2409 146.375 66.9992 146.375C67.7576 146.375 68.3534 145.779 68.3534 145.021ZM65.374 149.083H68.624C70.4115 149.083 71.874 150.545 71.874 152.333V153.958H70.249V152.333C70.249 151.412 69.4907 150.708 68.624 150.708H65.374C64.5074 150.708 63.749 151.412 63.749 152.333V153.958H62.124V152.333C62.124 150.545 63.5865 149.083 65.374 149.083Z" fill="#EDF5FD"/>
<path fill-rule="evenodd" clip-rule="evenodd" d="M69.9784 145.021C69.9784 146.666 68.6446 148 66.9992 148C65.3539 148 64.0201 146.666 64.0201 145.021C64.0201 143.375 65.3539 142.042 66.9992 142.042C68.6446 142.042 69.9784 143.375 69.9784 145.021ZM65.374 149.083H68.624C70.4115 149.083 71.874 150.545 71.874 152.333V153.958H62.124V152.333C62.124 150.545 63.5865 149.083 65.374 149.083Z" fill="#EDF5FD"/>
</g>
<rect x="90" y="143" width="92" height="10" rx="5" fill="#C1D0F2"/>
<defs>
<clipPath id="clip0_1045_35980">
<rect width="26" height="26" fill="white" transform="translate(54 94)"/>
</clipPath>
<clipPath id="clip1_1045_35980">
<rect width="26" height="26" fill="white" transform="translate(54 135)"/>
</clipPath>
</defs>
</svg>
