
<svg width="216" height="211" viewBox="0 0 216 211" fill="none" xmlns="http://www.w3.org/2000/svg">
<rect width="216" height="211" rx="8" fill="#F7FBFF"/>
<path d="M51.9492 90C51.9492 85.5817 55.5309 82 59.9492 82L93.9492 82C98.3675 82 101.949 85.5817 101.949 90L101.949 110L51.9492 110L51.9492 90Z" fill="#4DBAE5"/>
<path d="M112.051 33C112.051 28.5817 115.633 25 120.051 25L156.051 25C160.469 25 164.051 28.5817 164.051 33L164.051 110L112.051 110L112.051 33Z" fill="#4DBAE5"/>
<circle cx="26.5" cy="141.5" r="11.5" fill="#DBF1FA"/>
<path d="M26.44 138.666V145.75H27.8545V137.343H24.6V138.666H26.44Z" fill="#4D7AE3"/>
<rect x="48" y="136.5" width="92" height="10" rx="5" fill="#DBF1FA"/>
<path d="M152.538 140.108C151.206 141.926 150.738 143.006 150.738 144.554C150.738 147.182 152.826 149.216 155.526 149.216C158.208 149.216 160.26 147.272 160.26 144.554C160.26 141.98 158.442 140.036 155.742 140.036C155.292 140.036 154.824 140.126 154.374 140.306L157.632 135.986H155.58L152.538 140.108ZM152.538 144.572C152.538 142.79 153.762 141.53 155.526 141.53C157.254 141.53 158.478 142.79 158.478 144.572C158.478 146.354 157.254 147.632 155.526 147.632C153.762 147.632 152.538 146.354 152.538 144.572ZM161.85 145.382C161.85 147.686 163.74 149.216 166.638 149.216C169.518 149.216 171.426 147.686 171.426 145.4C171.426 143.798 170.49 142.502 169.032 142.034C170.256 141.548 170.94 140.522 170.94 139.19C170.94 137.138 169.212 135.752 166.656 135.752C164.064 135.752 162.318 137.138 162.318 139.172C162.318 140.486 162.984 141.512 164.208 142.034C162.768 142.556 161.85 143.816 161.85 145.382ZM163.938 139.28C163.938 138.074 165 137.282 166.62 137.282C168.258 137.282 169.284 138.074 169.284 139.316C169.284 140.576 168.258 141.386 166.62 141.386C165 141.386 163.938 140.558 163.938 139.28ZM163.578 145.256C163.578 143.816 164.766 142.898 166.62 142.898C168.492 142.898 169.68 143.816 169.68 145.256C169.68 146.714 168.474 147.65 166.638 147.65C164.784 147.65 163.578 146.714 163.578 145.256ZM179.58 139.064C179.58 137.12 178.212 135.734 176.286 135.734C174.378 135.734 173.01 137.12 173.01 139.064C173.01 140.99 174.378 142.376 176.286 142.376C178.212 142.376 179.58 140.99 179.58 139.064ZM186.438 136.004H184.71L174.828 149H176.556L186.438 136.004ZM178.194 139.064C178.194 140.216 177.402 141.026 176.286 141.026C175.17 141.026 174.396 140.216 174.396 139.064C174.396 137.894 175.17 137.084 176.286 137.084C177.42 137.084 178.194 137.894 178.194 139.064ZM188.292 145.922C188.292 143.978 186.906 142.61 184.998 142.61C183.09 142.61 181.704 143.978 181.704 145.922C181.704 147.848 183.09 149.234 184.998 149.234C186.906 149.234 188.292 147.848 188.292 145.922ZM186.888 145.922C186.888 147.074 186.114 147.884 184.998 147.884C183.882 147.884 183.108 147.074 183.108 145.922C183.108 144.752 183.882 143.942 184.998 143.942C186.132 143.942 186.888 144.752 186.888 145.922Z" fill="#4DBAE5"/>
<circle cx="26.5" cy="174.5" r="11.5" fill="#DBF1FA"/>
<path d="M29.4735 178.738V177.37H25.9775L27.4955 176.07C28.772 174.978 29.416 174.092 29.416 172.919C29.416 171.217 28.3005 170.194 26.5065 170.194C24.724 170.194 23.551 171.39 23.5395 173.23H25C25.0115 172.149 25.5865 171.505 26.5065 171.505C27.392 171.505 27.9095 172.045 27.9095 173C27.9095 173.805 27.53 174.357 26.3915 175.323L23.643 177.646V178.75L29.4735 178.738Z" fill="#4D7AE3"/>
<rect x="48" y="169.5" width="92" height="10" rx="5" fill="#DBF1FA"/>
<path d="M154.608 175.268C156.678 175.268 157.758 176.312 157.758 177.878C157.758 179.552 156.66 180.632 154.968 180.632C153.33 180.632 152.286 179.642 152.286 177.95H150.54C150.54 180.65 152.376 182.216 154.932 182.216C157.578 182.216 159.558 180.542 159.558 177.914C159.558 175.574 157.884 174.08 155.67 173.81L159.234 170.408V168.986H151.152V170.552H157.002L153.312 174.098V175.268H154.608ZM169.561 181.982V180.344H163.549L166.249 178.004C168.553 176.006 169.471 174.692 169.471 172.838C169.471 170.336 167.797 168.752 165.187 168.752C162.541 168.752 160.777 170.57 160.723 173.36H162.487C162.523 171.506 163.567 170.336 165.169 170.336C166.735 170.336 167.671 171.308 167.671 172.946C167.671 174.332 167.077 175.214 164.971 177.032L160.777 180.65V182L169.561 181.982ZM177.629 172.064C177.629 170.12 176.261 168.734 174.335 168.734C172.427 168.734 171.059 170.12 171.059 172.064C171.059 173.99 172.427 175.376 174.335 175.376C176.261 175.376 177.629 173.99 177.629 172.064ZM184.487 169.004H182.759L172.877 182H174.605L184.487 169.004ZM176.243 172.064C176.243 173.216 175.451 174.026 174.335 174.026C173.219 174.026 172.445 173.216 172.445 172.064C172.445 170.894 173.219 170.084 174.335 170.084C175.469 170.084 176.243 170.894 176.243 172.064ZM186.341 178.922C186.341 176.978 184.955 175.61 183.047 175.61C181.139 175.61 179.753 176.978 179.753 178.922C179.753 180.848 181.139 182.234 183.047 182.234C184.955 182.234 186.341 180.848 186.341 178.922ZM184.937 178.922C184.937 180.074 184.163 180.884 183.047 180.884C181.931 180.884 181.157 180.074 181.157 178.922C181.157 177.752 181.931 176.942 183.047 176.942C184.181 176.942 184.937 177.752 184.937 178.922Z" fill="#4DBAE5"/>
</svg>
