<svg width="566" height="412" viewBox="0 0 566 412" fill="none" xmlns="http://www.w3.org/2000/svg">
    <g filter="url(#filter0_d_1064_44898)">
        <rect x="57" y="105" width="289" height="221.58" rx="8" fill="#4D7AE3" shape-rendering="crispEdges" />
        <g clip-path="url(#clip0_1064_44898)">
            <g clip-path="url(#clip1_1064_44898)">
                <circle cx="121.047" cy="169.048" r="28.1322" fill="#89A0D7" stroke="#C1D0F2" stroke-width="1.83022" />
                <path
                    d="M108.874 166.852V169.924H119.727V180.827H122.8V169.924H133.652V166.852H122.8V155.999H119.727V166.852H108.874Z"
                    fill="#C1D0F2" />
            </g>
        </g>
        <g clip-path="url(#clip2_1064_44898)">
            <g clip-path="url(#clip3_1064_44898)">
                <circle cx="155.349" cy="169.048" r="28.1322" fill="#89A0D7" stroke="#C1D0F2" stroke-width="1.83022" />
                <path fill-rule="evenodd" clip-rule="evenodd"
                    d="M162.006 162.392C162.006 166.023 158.98 169.049 155.349 169.049C151.719 169.049 148.693 166.023 148.693 162.392C148.693 158.761 151.719 155.735 155.349 155.735C158.98 155.735 162.006 158.761 162.006 162.392ZM158.375 162.392C158.375 160.698 157.044 159.366 155.349 159.366C153.655 159.366 152.324 160.698 152.324 162.392C152.324 164.087 153.655 165.418 155.349 165.418C157.044 165.418 158.375 164.087 158.375 162.392ZM151.719 171.469H158.981C162.975 171.469 166.243 174.737 166.243 178.731V182.362H162.612V178.731C162.612 176.674 160.917 175.1 158.981 175.1H151.719C149.782 175.1 148.088 176.674 148.088 178.731V182.362H144.457V178.731C144.457 174.737 147.725 171.469 151.719 171.469Z"
                    fill="#C1D0F2" />
                <path fill-rule="evenodd" clip-rule="evenodd"
                    d="M162.006 162.392C162.006 166.069 159.026 169.049 155.349 169.049C151.673 169.049 148.693 166.069 148.693 162.392C148.693 158.716 151.673 155.735 155.349 155.735C159.026 155.735 162.006 158.716 162.006 162.392ZM151.719 171.469H158.981C162.975 171.469 166.243 174.737 166.243 178.731V182.362H144.457V178.731C144.457 174.737 147.725 171.469 151.719 171.469Z"
                    fill="#C1D0F2" />
            </g>
        </g>
        <g clip-path="url(#clip4_1064_44898)">
            <g clip-path="url(#clip5_1064_44898)">
                <circle cx="189.651" cy="169.048" r="28.1322" fill="#89A0D7" stroke="#C1D0F2" stroke-width="1.83022" />
                <path fill-rule="evenodd" clip-rule="evenodd"
                    d="M196.308 162.392C196.308 166.023 193.282 169.049 189.651 169.049C186.02 169.049 182.995 166.023 182.995 162.392C182.995 158.761 186.02 155.735 189.651 155.735C193.282 155.735 196.308 158.761 196.308 162.392ZM192.677 162.392C192.677 160.698 191.346 159.366 189.651 159.366C187.957 159.366 186.625 160.698 186.625 162.392C186.625 164.087 187.957 165.418 189.651 165.418C191.346 165.418 192.677 164.087 192.677 162.392ZM186.021 171.469H193.282C197.276 171.469 200.544 174.737 200.544 178.731V182.362H196.913V178.731C196.913 176.674 195.219 175.1 193.282 175.1H186.021C184.084 175.1 182.39 176.674 182.39 178.731V182.362H178.759V178.731C178.759 174.737 182.027 171.469 186.021 171.469Z"
                    fill="#C1D0F2" />
                <path fill-rule="evenodd" clip-rule="evenodd"
                    d="M196.308 162.392C196.308 166.069 193.328 169.049 189.651 169.049C185.975 169.049 182.995 166.069 182.995 162.392C182.995 158.716 185.975 155.735 189.651 155.735C193.328 155.735 196.308 158.716 196.308 162.392ZM186.021 171.469H193.282C197.276 171.469 200.544 174.737 200.544 178.731V182.362H178.759V178.731C178.759 174.737 182.027 171.469 186.021 171.469Z"
                    fill="#C1D0F2" />
            </g>
        </g>
        <path
            d="M102.472 245.474V281.034H107.736V240.546H93.96V245.474H102.472ZM128.532 281.706C137.268 281.706 143.26 275.826 143.26 267.426C143.26 259.642 137.94 253.874 129.708 253.874C126.684 253.874 123.996 254.714 121.868 256.338L124.556 245.586H140.852V240.546H120.58L115.652 261.322L120.3 262.498C122.148 260.202 125.284 258.578 128.7 258.578C134.356 258.578 137.66 262.442 137.66 267.65C137.66 273.138 134.132 276.778 128.644 276.778C123.492 276.778 120.3 273.586 120.3 268.378H114.868C114.868 276.442 120.244 281.706 128.532 281.706ZM148.01 260.818C148.01 273.418 154.226 281.762 164.698 281.762C175.114 281.762 181.33 273.418 181.33 260.818C181.33 248.274 174.834 239.762 164.698 239.762C154.506 239.762 148.01 248.274 148.01 260.818ZM153.442 260.818C153.442 250.738 157.586 244.69 164.698 244.69C171.81 244.69 175.898 250.738 175.898 260.818C175.898 270.786 171.81 276.834 164.698 276.834C157.586 276.834 153.442 270.786 153.442 260.818ZM188.481 281.034L204.329 240.602H199.065L183.273 281.034H188.481ZM218.985 281.706C227.721 281.706 233.713 275.826 233.713 267.426C233.713 259.642 228.393 253.874 220.161 253.874C217.137 253.874 214.449 254.714 212.321 256.338L215.009 245.586H231.305V240.546H211.033L206.105 261.322L210.753 262.498C212.601 260.202 215.737 258.578 219.153 258.578C224.809 258.578 228.113 262.442 228.113 267.65C228.113 273.138 224.585 276.778 219.097 276.778C213.945 276.778 210.753 273.586 210.753 268.378H205.321C205.321 276.442 210.697 281.706 218.985 281.706ZM238.463 260.818C238.463 273.418 244.679 281.762 255.151 281.762C265.567 281.762 271.783 273.418 271.783 260.818C271.783 248.274 265.287 239.762 255.151 239.762C244.959 239.762 238.463 248.274 238.463 260.818ZM243.895 260.818C243.895 250.738 248.039 244.69 255.151 244.69C262.263 244.69 266.351 250.738 266.351 260.818C266.351 270.786 262.263 276.834 255.151 276.834C248.039 276.834 243.895 270.786 243.895 260.818ZM277.291 260.818C277.291 273.418 283.507 281.762 293.979 281.762C304.395 281.762 310.611 273.418 310.611 260.818C310.611 248.274 304.115 239.762 293.979 239.762C283.787 239.762 277.291 248.274 277.291 260.818ZM282.723 260.818C282.723 250.738 286.867 244.69 293.979 244.69C301.091 244.69 305.179 250.738 305.179 260.818C305.179 270.786 301.091 276.834 293.979 276.834C286.867 276.834 282.723 270.786 282.723 260.818Z"
            fill="white" />
    </g>
    <g filter="url(#filter1_d_1064_44898)">
        <rect x="321" y="203" width="151.273" height="168" rx="8" fill="#B8E3F5" shape-rendering="crispEdges" />
        <path
            d="M396.636 286.786V263.536C396.636 262.068 397.219 260.66 398.258 259.621C399.296 258.583 400.704 258 402.172 258V258C403.64 258 405.048 258.583 406.086 259.621C407.124 260.66 407.708 262.068 407.708 263.536V275.714H416.565C418.914 275.714 421.167 276.647 422.828 278.308C424.489 279.97 425.422 282.222 425.422 284.571V286.786"
            stroke="#00597C" stroke-width="3" stroke-linecap="round" stroke-linejoin="round" />
        <path
            d="M370.064 233.643C371.287 233.643 372.279 232.651 372.279 231.429C372.279 230.206 371.287 229.214 370.064 229.214C368.841 229.214 367.85 230.206 367.85 231.429C367.85 232.651 368.841 233.643 370.064 233.643Z"
            fill="#00597C" stroke="#00597C" stroke-width="3" stroke-linecap="round" stroke-linejoin="round" />
        <path
            d="M387.778 233.643C389.001 233.643 389.992 232.651 389.992 231.429C389.992 230.206 389.001 229.214 387.778 229.214C386.555 229.214 385.563 230.206 385.563 231.429C385.563 232.651 386.555 233.643 387.778 233.643Z"
            fill="#00597C" stroke="#00597C" stroke-width="3" stroke-linecap="round" stroke-linejoin="round" />
        <path
            d="M405.493 233.643C406.716 233.643 407.707 232.651 407.707 231.429C407.707 230.206 406.716 229.214 405.493 229.214C404.27 229.214 403.279 230.206 403.279 231.429C403.279 232.651 404.27 233.643 405.493 233.643Z"
            fill="#00597C" stroke="#00597C" stroke-width="3" stroke-linecap="round" stroke-linejoin="round" />
        <path
            d="M370.064 249.143C371.287 249.143 372.279 248.151 372.279 246.929C372.279 245.706 371.287 244.714 370.064 244.714C368.841 244.714 367.85 245.706 367.85 246.929C367.85 248.151 368.841 249.143 370.064 249.143Z"
            fill="#00597C" stroke="#00597C" stroke-width="3" stroke-linecap="round" stroke-linejoin="round" />
        <path
            d="M387.778 249.143C389.001 249.143 389.992 248.151 389.992 246.929C389.992 245.706 389.001 244.714 387.778 244.714C386.555 244.714 385.563 245.706 385.563 246.929C385.563 248.151 386.555 249.143 387.778 249.143Z"
            fill="#00597C" stroke="#00597C" stroke-width="3" stroke-linecap="round" stroke-linejoin="round" />
        <path
            d="M405.493 249.143C406.716 249.143 407.707 248.151 407.707 246.929C407.707 245.706 406.716 244.714 405.493 244.714C404.27 244.714 403.279 245.706 403.279 246.929C403.279 248.151 404.27 249.143 405.493 249.143Z"
            fill="#00597C" stroke="#00597C" stroke-width="3" stroke-linecap="round" stroke-linejoin="round" />
        <path
            d="M370.064 264.643C371.287 264.643 372.279 263.651 372.279 262.429C372.279 261.206 371.287 260.214 370.064 260.214C368.841 260.214 367.85 261.206 367.85 262.429C367.85 263.651 368.841 264.643 370.064 264.643Z"
            fill="#00597C" stroke="#00597C" stroke-width="3" stroke-linecap="round" stroke-linejoin="round" />
        <path
            d="M387.778 264.643C387.19 264.643 386.627 264.41 386.212 263.994C385.797 263.579 385.563 263.016 385.563 262.429C385.563 261.841 385.797 261.278 386.212 260.863C386.627 260.448 387.19 260.214 387.778 260.214V264.643Z"
            fill="#00597C" stroke="#00597C" stroke-width="3" stroke-linecap="round" stroke-linejoin="round" />
            
    </g>
    <g filter="url(#filter2_d_1064_44898)">
        <rect x="204" y="37" width="283.626" height="87.4956" rx="8" fill="#1D2E56" shape-rendering="crispEdges" />
        <rect x="229" y="62" width="34.6113" height="34.6113" rx="17.3057" fill="#2AD399" />
        <rect x="229" y="62" width="34.6113" height="34.6113" rx="17.3057" stroke="#D4D4D4" />
        <path
            d="M241.575 79.3058C241.305 79.0625 240.952 78.9304 240.588 78.9362C240.224 78.9419 239.876 79.0851 239.613 79.3369C239.35 79.5888 239.193 79.9306 239.171 80.294C239.15 80.6573 239.267 81.0153 239.499 81.296L242.7 84.6562C242.834 84.7968 242.995 84.9089 243.174 84.9857C243.352 85.0625 243.544 85.1025 243.739 85.1032C243.932 85.1044 244.123 85.0667 244.302 84.9923C244.48 84.918 244.642 84.8086 244.777 84.6706L254.555 74.5756C254.687 74.4393 254.792 74.2781 254.862 74.1014C254.932 73.9247 254.967 73.7359 254.964 73.5457C254.962 73.3556 254.922 73.1678 254.846 72.9932C254.771 72.8185 254.662 72.6604 254.526 72.5278C254.389 72.3952 254.228 72.2908 254.052 72.2205C253.875 72.1502 253.686 72.1154 253.496 72.1181C253.306 72.1208 253.118 72.1609 252.943 72.2361C252.769 72.3114 252.611 72.4203 252.478 72.5566L243.753 81.5844L241.575 79.3058Z"
            fill="white" />
        <g clip-path="url(#clip6_1064_44898)">
            <path fill-rule="evenodd" clip-rule="evenodd"
                d="M301.076 76.451C301.076 78.7945 299.123 80.7473 296.779 80.7473C294.436 80.7473 292.483 78.7945 292.483 76.451C292.483 74.1075 294.436 72.1546 296.779 72.1546C299.123 72.1546 301.076 74.1075 301.076 76.451ZM298.732 76.451C298.732 75.3574 297.873 74.4981 296.779 74.4981C295.686 74.4981 294.826 75.3574 294.826 76.451C294.826 77.5446 295.686 78.4039 296.779 78.4039C297.873 78.4039 298.732 77.5446 298.732 76.451ZM294.435 82.3094H299.122C301.7 82.3094 303.809 84.4186 303.809 86.9964V89.3399H301.466V86.9964C301.466 85.6684 300.372 84.6529 299.122 84.6529H294.435C293.186 84.6529 292.092 85.6684 292.092 86.9964V89.3399H289.749V86.9964C289.749 84.4186 291.858 82.3094 294.435 82.3094Z"
                fill="#EDF5FD" />
            <path fill-rule="evenodd" clip-rule="evenodd"
                d="M301.076 76.451C301.076 78.8238 299.152 80.7473 296.779 80.7473C294.406 80.7473 292.483 78.8238 292.483 76.451C292.483 74.0782 294.406 72.1546 296.779 72.1546C299.152 72.1546 301.076 74.0782 301.076 76.451ZM294.435 82.3094H299.122C301.7 82.3094 303.809 84.4186 303.809 86.9964V89.3399H289.749V86.9964C289.749 84.4186 291.858 82.3094 294.435 82.3094Z"
                fill="#EDF5FD" />
        </g>
        <rect x="329.95" y="73.5371" width="132.677" height="14.4214" rx="7.21069" fill="#C1D0F2" />
    </g>
    <defs>
        <filter id="filter0_d_1064_44898" x="37" y="87" width="329" height="261.58" filterUnits="userSpaceOnUse"
            color-interpolation-filters="sRGB">
            <feFlood flood-opacity="0" result="BackgroundImageFix" />
            <feColorMatrix in="SourceAlpha" type="matrix" values="0 0 0 0 0 0 0 0 0 0 0 0 0 0 0 0 0 0 127 0"
                result="hardAlpha" />
            <feOffset dy="2" />
            <feGaussianBlur stdDeviation="10" />
            <feComposite in2="hardAlpha" operator="out" />
            <feColorMatrix type="matrix" values="0 0 0 0 0 0 0 0 0 0 0 0 0 0 0 0 0 0 0.08 0" />
            <feBlend mode="normal" in2="BackgroundImageFix" result="effect1_dropShadow_1064_44898" />
            <feBlend mode="normal" in="SourceGraphic" in2="effect1_dropShadow_1064_44898" result="shape" />
        </filter>
        <filter id="filter1_d_1064_44898" x="301" y="185" width="191.273" height="208" filterUnits="userSpaceOnUse"
            color-interpolation-filters="sRGB">
            <feFlood flood-opacity="0" result="BackgroundImageFix" />
            <feColorMatrix in="SourceAlpha" type="matrix" values="0 0 0 0 0 0 0 0 0 0 0 0 0 0 0 0 0 0 127 0"
                result="hardAlpha" />
            <feOffset dy="2" />
            <feGaussianBlur stdDeviation="10" />
            <feComposite in2="hardAlpha" operator="out" />
            <feColorMatrix type="matrix" values="0 0 0 0 0 0 0 0 0 0 0 0 0 0 0 0 0 0 0.08 0" />
            <feBlend mode="normal" in2="BackgroundImageFix" result="effect1_dropShadow_1064_44898" />
            <feBlend mode="normal" in="SourceGraphic" in2="effect1_dropShadow_1064_44898" result="shape" />
        </filter>
        <filter id="filter2_d_1064_44898" x="184" y="19" width="323.626" height="127.496" filterUnits="userSpaceOnUse"
            color-interpolation-filters="sRGB">
            <feFlood flood-opacity="0" result="BackgroundImageFix" />
            <feColorMatrix in="SourceAlpha" type="matrix" values="0 0 0 0 0 0 0 0 0 0 0 0 0 0 0 0 0 0 127 0"
                result="hardAlpha" />
            <feOffset dy="2" />
            <feGaussianBlur stdDeviation="10" />
            <feComposite in2="hardAlpha" operator="out" />
            <feColorMatrix type="matrix" values="0 0 0 0 0 0 0 0 0 0 0 0 0 0 0 0 0 0 0.08 0" />
            <feBlend mode="normal" in2="BackgroundImageFix" result="effect1_dropShadow_1064_44898" />
            <feBlend mode="normal" in="SourceGraphic" in2="effect1_dropShadow_1064_44898" result="shape" />
        </filter>
        <clipPath id="clip0_1064_44898">
            <rect width="58.0946" height="58.0946" fill="white" transform="translate(92 140)" />
        </clipPath>
        <clipPath id="clip1_1064_44898">
            <rect width="58.0946" height="58.0946" fill="white" transform="translate(92 140)" />
        </clipPath>
        <clipPath id="clip2_1064_44898">
            <rect width="58.0946" height="58.0946" fill="white" transform="translate(126.302 140)" />
        </clipPath>
        <clipPath id="clip3_1064_44898">
            <rect width="58.0946" height="58.0946" fill="white" transform="translate(126.302 140)" />
        </clipPath>
        <clipPath id="clip4_1064_44898">
            <rect width="58.0946" height="58.0946" fill="white" transform="translate(160.604 140)" />
        </clipPath>
        <clipPath id="clip5_1064_44898">
            <rect width="58.0946" height="58.0946" fill="white" transform="translate(160.604 140)" />
        </clipPath>
        <clipPath id="clip6_1064_44898">
            <rect width="37.4956" height="37.4956" fill="white" transform="translate(278.033 62)" />
        </clipPath>
    </defs>
</svg>