<svg width="566" height="412" viewBox="0 0 323 322" fill="none" xmlns="http://www.w3.org/2000/svg">
    <g clip-path="url(#clip0_1147_51187)">
        <g filter="url(#filter0_d_1147_51187)">
            <rect x="11" y="190.714" width="104.042" height="119.43" rx="5.86567" fill="#1D2E56"
                shape-rendering="crispEdges" />
            <path
                d="M64.4325 210.293L69.0104 219.535C69.1145 219.769 69.2783 219.973 69.4854 220.124C69.6925 220.276 69.9357 220.37 70.1908 220.399L80.2966 221.896C80.5892 221.933 80.8651 222.053 81.092 222.242C81.3189 222.43 81.4875 222.68 81.5781 222.96C81.6686 223.241 81.6775 223.542 81.6035 223.828C81.5295 224.113 81.3758 224.372 81.1604 224.573L73.8761 231.8C73.6902 231.974 73.5507 232.191 73.4702 232.432C73.3898 232.674 73.371 232.931 73.4155 233.182L75.1717 243.345C75.2226 243.637 75.1905 243.938 75.079 244.212C74.9675 244.487 74.7812 244.725 74.5412 244.899C74.3012 245.073 74.0172 245.176 73.7214 245.197C73.4257 245.217 73.1302 245.154 72.8684 245.015L63.7703 240.207C63.5374 240.093 63.2813 240.033 63.0218 240.033C62.7622 240.033 62.5061 240.093 62.2732 240.207L53.1751 245.015C52.9133 245.154 52.6178 245.217 52.3221 245.197C52.0264 245.176 51.7423 245.073 51.5023 244.899C51.2624 244.725 51.076 244.487 50.9645 244.212C50.8531 243.938 50.8209 243.637 50.8718 243.345L52.628 233.067C52.6726 232.816 52.6537 232.559 52.5733 232.317C52.4928 232.076 52.3533 231.858 52.1674 231.685L44.7968 224.573C44.5787 224.366 44.4254 224.1 44.3553 223.808C44.2852 223.516 44.3015 223.209 44.402 222.926C44.5026 222.642 44.6831 222.394 44.9218 222.211C45.1605 222.029 45.4471 221.919 45.7469 221.896L55.8527 220.399C56.1078 220.37 56.351 220.276 56.5581 220.124C56.7652 219.973 56.929 219.769 57.0331 219.535L61.611 210.293C61.7356 210.024 61.9347 209.796 62.1847 209.636C62.4347 209.476 62.7251 209.391 63.0218 209.391C63.3184 209.391 63.6088 209.476 63.8588 209.636C64.1088 209.796 64.3079 210.024 64.4325 210.293Z"
                fill="#1D2E56" stroke="#C1D0F2" stroke-width="1.46575" stroke-linecap="round" stroke-linejoin="round" />
            <!-- <path
                d="M36.0516 265.218C37.3186 265.218 38.3744 265.825 38.7307 267.039H40.1033C39.7866 265.205 38.1632 264.004 36.078 264.004C33.2669 264.004 31.3928 266.063 31.3928 268.966C31.3928 271.909 33.2537 273.862 35.9592 273.862C37.3582 273.862 38.5196 273.255 39.0343 272.424L39.1267 273.717H40.2089V268.451H35.8008V269.6H38.9947V269.877C38.9947 271.804 37.6881 272.635 36.0648 272.635C34.0983 272.635 32.7521 271.302 32.7521 268.992C32.7521 266.736 33.9927 265.218 36.0516 265.218ZM44.6255 273.862C46.2224 273.862 47.3046 273.084 47.6214 271.698H46.46C46.2488 272.437 45.6153 272.833 44.6519 272.833C43.4245 272.833 42.7118 272.081 42.6194 270.721L47.6082 270.708V270.246C47.6082 268.333 46.4072 267.066 44.5727 267.066C42.6986 267.066 41.4184 268.465 41.4184 270.484C41.4184 272.49 42.725 273.862 44.6255 273.862ZM44.5727 268.108C45.6681 268.108 46.3676 268.821 46.3676 269.89H42.6458C42.8042 268.755 43.4905 268.108 44.5727 268.108ZM48.4659 271.83C48.4659 273.057 49.4294 273.862 50.9471 273.862C52.4781 273.862 53.5339 273.084 53.5339 271.856C53.5339 270.893 52.9928 270.391 51.8974 270.128L50.7624 269.85C50.1289 269.692 49.8121 269.402 49.8121 268.966C49.8121 268.372 50.2476 268.029 51.0263 268.029C51.7786 268.029 52.2141 268.438 52.2405 269.085H53.4283C53.4019 267.857 52.4781 267.066 51.0659 267.066C49.6405 267.066 48.6375 267.818 48.6375 269.006C48.6375 269.956 49.1786 270.523 50.3268 270.801L51.4618 271.065C52.1349 271.236 52.3461 271.5 52.3461 271.936C52.3461 272.53 51.8446 272.886 50.9735 272.886C50.1553 272.886 49.6537 272.49 49.6537 271.83H48.4659ZM56.7309 273.704V268.293H57.9979V267.25H56.7309V265.231H55.4903V267.25H54.2234V268.293H55.4903V273.704H56.7309ZM59.7184 265.719C60.1671 265.719 60.5366 265.35 60.5366 264.901C60.5366 264.439 60.1671 264.083 59.7184 264.083C59.2697 264.083 58.9001 264.439 58.9001 264.901C58.9001 265.35 59.2697 265.719 59.7184 265.719ZM59.1113 273.704H60.3519V267.25H59.1113V273.704ZM66.7326 264.743H65.5184L64.6341 266.498H65.5844L66.7326 264.743ZM61.7306 270.471C61.7306 272.464 63.156 273.862 65.0961 273.862C67.0229 273.862 68.4483 272.464 68.4483 270.471C68.4483 268.478 67.0229 267.079 65.0961 267.079C63.156 267.079 61.7306 268.478 61.7306 270.471ZM62.9844 270.471C62.9844 269.124 63.8423 268.187 65.0961 268.187C66.3366 268.187 67.2077 269.124 67.2077 270.471C67.2077 271.817 66.3366 272.754 65.0961 272.754C63.8423 272.754 62.9844 271.817 62.9844 270.471ZM71.0622 273.704V270.286C71.0622 269.032 71.7352 268.201 72.8966 268.201C73.8469 268.201 74.454 268.729 74.454 270.035V273.704H75.6946V269.758C75.6946 268.108 74.9159 267.066 73.2134 267.066C72.3027 267.066 71.4845 267.501 71.0754 268.24L70.9434 267.25H69.8216V273.704H71.0622ZM83.6084 273.862C84.6378 273.862 85.5089 273.414 85.9312 272.53L86.0368 273.704H87.1454V263.991H85.918V268.293C85.4825 267.501 84.651 267.066 83.6612 267.066C81.7475 267.066 80.5993 268.517 80.5993 270.497C80.5993 272.464 81.7343 273.862 83.6084 273.862ZM83.8591 272.741C82.5922 272.741 81.8531 271.79 81.8531 270.457C81.8531 269.138 82.5922 268.187 83.8591 268.187C85.1261 268.187 85.9048 269.138 85.9048 270.457C85.9048 271.804 85.1261 272.741 83.8591 272.741ZM91.7199 273.862C93.3168 273.862 94.399 273.084 94.7158 271.698H93.5543C93.3432 272.437 92.7097 272.833 91.7463 272.833C90.5189 272.833 89.8062 272.081 89.7138 270.721L94.7026 270.708V270.246C94.7026 268.333 93.5016 267.066 91.6671 267.066C89.793 267.066 88.5128 268.465 88.5128 270.484C88.5128 272.49 89.8194 273.862 91.7199 273.862ZM91.6671 268.108C92.7625 268.108 93.462 268.821 93.462 269.89H89.7402C89.8986 268.755 90.5848 268.108 91.6671 268.108ZM41.9404 286.484C41.9404 288.516 43.1942 289.862 45.0947 289.862C46.652 289.862 47.853 288.925 48.1038 287.526H46.8632C46.6388 288.292 45.9789 288.754 45.0947 288.754C43.9201 288.754 43.1678 287.856 43.1678 286.471C43.1678 285.072 43.9729 284.174 45.1475 284.174C45.9789 284.174 46.6388 284.61 46.85 285.428H48.0906C47.8662 283.989 46.7312 283.066 45.1079 283.066C43.2206 283.066 41.9404 284.465 41.9404 286.484ZM51.3 289.862C52.3426 289.862 53.2269 289.401 53.5568 288.661L53.6888 289.704H54.7446V285.652C54.7446 283.91 53.6624 283.066 52.0655 283.066C50.4026 283.066 49.2939 283.95 49.2939 285.296H50.3762C50.3762 284.517 50.9701 284.055 52.0127 284.055C52.8837 284.055 53.5304 284.438 53.5304 285.52V285.705L51.498 285.864C49.9802 285.982 49.096 286.721 49.096 287.909C49.096 289.084 49.9142 289.862 51.3 289.862ZM51.6563 288.899C50.8513 288.899 50.3498 288.556 50.3498 287.87C50.3498 287.236 50.7985 286.814 51.8939 286.708L53.5436 286.576V286.919C53.5436 288.134 52.8309 288.899 51.6563 288.899ZM57.7297 289.704V279.991H56.4891V289.704H57.7297ZM60.163 281.719C60.6117 281.719 60.9813 281.35 60.9813 280.901C60.9813 280.439 60.6117 280.083 60.163 280.083C59.7143 280.083 59.3448 280.439 59.3448 280.901C59.3448 281.35 59.7143 281.719 60.163 281.719ZM59.5559 289.704H60.7965V283.25H59.5559V289.704ZM65.1844 289.862C66.2138 289.862 67.0848 289.414 67.5072 288.53L67.6127 289.704H68.7214V279.991H67.494V284.293C67.0584 283.501 66.227 283.066 65.2372 283.066C63.3235 283.066 62.1753 284.517 62.1753 286.497C62.1753 288.464 63.3103 289.862 65.1844 289.862ZM65.4351 288.741C64.1681 288.741 63.4291 287.79 63.4291 286.457C63.4291 285.138 64.1681 284.187 65.4351 284.187C66.7021 284.187 67.4808 285.138 67.4808 286.457C67.4808 287.804 66.7021 288.741 65.4351 288.741ZM72.3984 289.862C73.441 289.862 74.3253 289.401 74.6552 288.661L74.7872 289.704H75.843V285.652C75.843 283.91 74.7608 283.066 73.1639 283.066C71.5009 283.066 70.3923 283.95 70.3923 285.296H71.4745C71.4745 284.517 72.0684 284.055 73.1111 284.055C73.9821 284.055 74.6288 284.438 74.6288 285.52V285.705L72.5963 285.864C71.0786 285.982 70.1944 286.721 70.1944 287.909C70.1944 289.084 71.0126 289.862 72.3984 289.862ZM72.7547 288.899C71.9497 288.899 71.4481 288.556 71.4481 287.87C71.4481 287.236 71.8969 286.814 72.9923 286.708L74.642 286.576V286.919C74.642 288.134 73.9293 288.899 72.7547 288.899ZM80.1478 289.862C81.1773 289.862 82.0483 289.414 82.4707 288.53L82.5762 289.704H83.6848V279.991H82.4575V284.293C82.0219 283.501 81.1905 283.066 80.2006 283.066C78.287 283.066 77.1388 284.517 77.1388 286.497C77.1388 288.464 78.2738 289.862 80.1478 289.862ZM80.3986 288.741C79.1316 288.741 78.3925 287.79 78.3925 286.457C78.3925 285.138 79.1316 284.187 80.3986 284.187C81.6656 284.187 82.4443 285.138 82.4443 286.457C82.4443 287.804 81.6656 288.741 80.3986 288.741Z"
                fill="#C1D0F2" /> -->
        </g>
        
        <g filter="url(#filter1_d_1147_51187)">
            <rect x="91" y="31.7144" width="224.796" height="203" rx="9.71017" fill="white"
                shape-rendering="crispEdges" />
            <circle cx="121.951" cy="62.6655" r="5.84128" stroke="#F3F3F3" stroke-width="1.66894" />
            <rect x="135.909" y="55.9897" width="72.2781" height="12.973" rx="3.70657" fill="#F3F3F3" />
            <rect x="135.909" y="73.8179" width="24.0927" height="9.26643" rx="3.70657" fill="#F3F3F3" />
            <circle cx="121.951" cy="119.413" r="5.84128" stroke="#F3F3F3" stroke-width="1.66894" />
            <rect x="139.551" y="112.737" width="72.2781" height="12.973" rx="3.70657" fill="#F3F3F3" />
            <rect x="139.551" y="130.565" width="151.969" height="9.71017" rx="3.70657" fill="#F3F3F3" />
            <rect x="139.551" y="143.981" width="135.29" height="9.71017" rx="3.70657" fill="#F3F3F3" />
            <circle cx="119.909" cy="190.405" r="3.24325" stroke="#1D2E56" stroke-width="2.77993" />
            <rect x="135.466" y="183.344" width="72.2781" height="12.973" rx="3.70657" fill="#F3F3F3" />
            <rect x="135.466" y="201.172" width="37.0657" height="9.26643" rx="3.70657" fill="#F3F3F3" />
        </g>
        <g filter="url(#filter2_d_1147_51187)">
            <rect x="18" y="14.7144" width="104.042" height="119.43" rx="5.86567" fill="#4D7AE3"
                shape-rendering="crispEdges" />
            <path
                d="M81.0758 47.163H58.9668C57.4404 47.163 56.2031 48.4003 56.2031 49.9266V66.5084C56.2031 68.0347 57.4404 69.272 58.9668 69.272H81.0758C82.6021 69.272 83.8395 68.0347 83.8395 66.5084V49.9266C83.8395 48.4003 82.6021 47.163 81.0758 47.163Z"
                stroke="#C4D0EB" stroke-width="1.46642" stroke-linecap="round" stroke-linejoin="round" />
            <path
                d="M79.6941 47.1629V43.0174C79.6941 40.4521 78.675 37.9918 76.861 36.1778C75.047 34.3638 72.5867 33.3447 70.0214 33.3447C67.456 33.3447 64.9957 34.3638 63.1817 36.1778C61.3677 37.9918 60.3486 40.4521 60.3486 43.0174V47.1629"
                stroke="#C4D0EB" stroke-width="1.46642" stroke-linecap="round" stroke-linejoin="round" />
            <path
                d="M70.0219 60.981C71.1667 60.981 72.0947 60.053 72.0947 58.9083C72.0947 57.7636 71.1667 56.8356 70.0219 56.8356C68.8772 56.8356 67.9492 57.7636 67.9492 58.9083C67.9492 60.053 68.8772 60.981 70.0219 60.981Z"
                fill="#C4D0EB" />
            <!-- <path
                d="M40.9475 96.1414C42.8084 96.1414 44.0226 94.848 44.0226 93.0663C44.0226 91.2318 42.8216 90.0044 40.9475 90.0044H37.2389V99.5464H38.5323V96.1414H40.9475ZM40.7231 91.1658C41.9373 91.1658 42.6632 91.8521 42.6632 93.0531C42.6632 94.2277 41.9505 94.98 40.6703 94.98H38.5323V91.1658H40.7231ZM48.9717 93.0399C48.721 92.9871 48.5362 92.9607 48.3118 92.9607C47.4276 92.9607 46.7809 93.4094 46.5169 94.0825L46.4378 93.1059H45.2764V99.5464H46.5169V96.1282C46.5169 94.8876 47.2428 94.1749 48.4174 94.1749H48.9717V93.0399ZM49.481 96.3129C49.481 98.3058 50.9063 99.7048 52.8464 99.7048C54.7733 99.7048 56.1986 98.3058 56.1986 96.3129C56.1986 94.3201 54.7733 92.9211 52.8464 92.9211C50.9063 92.9211 49.481 94.3201 49.481 96.3129ZM50.7348 96.3129C50.7348 94.9668 51.5926 94.0297 52.8464 94.0297C54.087 94.0297 54.958 94.9668 54.958 96.3129C54.958 97.6591 54.087 98.5961 52.8464 98.5961C51.5926 98.5961 50.7348 97.6591 50.7348 96.3129ZM59.3288 99.5464V94.1353H60.5958V93.0927H59.3288V91.0734H58.0882V93.0927H56.8212V94.1353H58.0882V99.5464H59.3288ZM64.4294 99.7048C66.0263 99.7048 67.1085 98.9261 67.4253 97.5403H66.2639C66.0527 98.2794 65.4192 98.6753 64.4558 98.6753C63.2284 98.6753 62.5157 97.9231 62.4233 96.5637L67.4121 96.5505V96.0886C67.4121 94.1749 66.2111 92.9079 64.3766 92.9079C62.5025 92.9079 61.2223 94.3069 61.2223 96.3261C61.2223 98.3322 62.5289 99.7048 64.4294 99.7048ZM64.3766 93.9505C65.472 93.9505 66.1715 94.6632 66.1715 95.7322H62.4497C62.6081 94.5972 63.2944 93.9505 64.3766 93.9505ZM68.3754 96.3261C68.3754 98.3586 69.6292 99.7048 71.5297 99.7048C73.087 99.7048 74.288 98.7677 74.5388 97.3688H73.2982C73.0738 98.1342 72.4139 98.5961 71.5297 98.5961C70.3551 98.5961 69.6028 97.6987 69.6028 96.3129C69.6028 94.914 70.4079 94.0165 71.5825 94.0165C72.4139 94.0165 73.0738 94.452 73.285 95.2703H74.5256C74.3012 93.8318 73.1662 92.9079 71.5429 92.9079C69.6556 92.9079 68.3754 94.3069 68.3754 96.3261ZM75.4254 96.3261C75.4254 98.3586 76.6792 99.7048 78.5797 99.7048C80.137 99.7048 81.338 98.7677 81.5888 97.3688H80.3482C80.1238 98.1342 79.4639 98.5961 78.5797 98.5961C77.4051 98.5961 76.6528 97.6987 76.6528 96.3129C76.6528 94.914 77.4579 94.0165 78.6325 94.0165C79.4639 94.0165 80.1238 94.452 80.335 95.2703H81.5756C81.3512 93.8318 80.2162 92.9079 78.5929 92.9079C76.7056 92.9079 75.4254 94.3069 75.4254 96.3261ZM83.5048 91.5617C83.9535 91.5617 84.3231 91.1922 84.3231 90.7435C84.3231 90.2816 83.9535 89.9252 83.5048 89.9252C83.0561 89.9252 82.6865 90.2816 82.6865 90.7435C82.6865 91.1922 83.0561 91.5617 83.5048 91.5617ZM82.8977 99.5464H84.1383V93.0927H82.8977V99.5464ZM90.519 90.5851H89.3048L88.4206 92.3404H89.3708L90.519 90.5851ZM85.5171 96.3129C85.5171 98.3058 86.9424 99.7048 88.8825 99.7048C90.8094 99.7048 92.2347 98.3058 92.2347 96.3129C92.2347 94.3201 90.8094 92.9211 88.8825 92.9211C86.9424 92.9211 85.5171 94.3201 85.5171 96.3129ZM86.7708 96.3129C86.7708 94.9668 87.6287 94.0297 88.8825 94.0297C90.1231 94.0297 90.9941 94.9668 90.9941 96.3129C90.9941 97.6591 90.1231 98.5961 88.8825 98.5961C87.6287 98.5961 86.7708 97.6591 86.7708 96.3129ZM94.8486 99.5464V96.1282C94.8486 94.8744 95.5217 94.0429 96.6831 94.0429C97.6333 94.0429 98.2404 94.5708 98.2404 95.8774V99.5464H99.481V95.6003C99.481 93.9505 98.7023 92.9079 96.9998 92.9079C96.0892 92.9079 95.2709 93.3434 94.8618 94.0825L94.7298 93.0927H93.608V99.5464H94.8486ZM47.876 115.705C48.9054 115.705 49.7765 115.256 50.1988 114.372L50.3044 115.546H51.413V105.833H50.1856V110.135C49.7501 109.343 48.9186 108.908 47.9288 108.908C46.0151 108.908 44.8669 110.36 44.8669 112.339C44.8669 114.306 46.0019 115.705 47.876 115.705ZM48.1268 114.583C46.8598 114.583 46.1207 113.633 46.1207 112.3C46.1207 110.98 46.8598 110.03 48.1268 110.03C49.3937 110.03 50.1724 110.98 50.1724 112.3C50.1724 113.646 49.3937 114.583 48.1268 114.583ZM55.9875 115.705C57.5844 115.705 58.6666 114.926 58.9834 113.54H57.822C57.6108 114.279 56.9773 114.675 56.0139 114.675C54.7865 114.675 54.0738 113.923 53.9814 112.564L58.9702 112.55V112.089C58.9702 110.175 57.7692 108.908 55.9347 108.908C54.0606 108.908 52.7804 110.307 52.7804 112.326C52.7804 114.332 54.087 115.705 55.9875 115.705ZM55.9347 109.951C57.0301 109.951 57.7296 110.663 57.7296 111.732H54.0078C54.1662 110.597 54.8525 109.951 55.9347 109.951ZM66.5514 115.705C67.5808 115.705 68.4518 115.256 68.8742 114.372L68.9797 115.546H70.0884V105.833H68.861V110.135C68.4254 109.343 67.594 108.908 66.6041 108.908C64.6905 108.908 63.5423 110.36 63.5423 112.339C63.5423 114.306 64.6773 115.705 66.5514 115.705ZM66.8021 114.583C65.5351 114.583 64.7961 113.633 64.7961 112.3C64.7961 110.98 65.5351 110.03 66.8021 110.03C68.0691 110.03 68.8478 110.98 68.8478 112.3C68.8478 113.646 68.0691 114.583 66.8021 114.583ZM73.7654 115.705C74.808 115.705 75.6922 115.243 76.0222 114.504L76.1542 115.546H77.21V111.495C77.21 109.753 76.1278 108.908 74.5308 108.908C72.8679 108.908 71.7593 109.792 71.7593 111.138H72.8415C72.8415 110.36 73.4354 109.898 74.4781 109.898C75.3491 109.898 75.9958 110.28 75.9958 111.363V111.547L73.9633 111.706C72.4456 111.825 71.5613 112.564 71.5613 113.751C71.5613 114.926 72.3796 115.705 73.7654 115.705ZM74.1217 114.741C73.3167 114.741 72.8151 114.398 72.8151 113.712C72.8151 113.078 73.2639 112.656 74.3593 112.55L76.009 112.419V112.762C76.009 113.976 75.2963 114.741 74.1217 114.741ZM80.6463 115.546V110.135H81.9132V109.093H80.6463V107.073H79.4057V109.093H78.1387V110.135H79.4057V115.546H80.6463ZM82.5398 112.313C82.5398 114.306 83.9652 115.705 85.9053 115.705C87.8321 115.705 89.2575 114.306 89.2575 112.313C89.2575 110.32 87.8321 108.921 85.9053 108.921C83.9652 108.921 82.5398 110.32 82.5398 112.313ZM83.7936 112.313C83.7936 110.967 84.6515 110.03 85.9053 110.03C87.1458 110.03 88.0169 110.967 88.0169 112.313C88.0169 113.659 87.1458 114.596 85.9053 114.596C84.6515 114.596 83.7936 113.659 83.7936 112.313ZM90.1029 113.672C90.1029 114.9 91.0663 115.705 92.584 115.705C94.115 115.705 95.1708 114.926 95.1708 113.699C95.1708 112.735 94.6297 112.234 93.5343 111.97L92.3993 111.693C91.7658 111.534 91.449 111.244 91.449 110.808C91.449 110.214 91.8846 109.871 92.6632 109.871C93.4155 109.871 93.851 110.28 93.8774 110.927H95.0652C95.0388 109.7 94.115 108.908 92.7028 108.908C91.2775 108.908 90.2744 109.66 90.2744 110.848C90.2744 111.798 90.8155 112.366 91.9638 112.643L93.0988 112.907C93.7718 113.078 93.983 113.342 93.983 113.778C93.983 114.372 93.4815 114.728 92.6104 114.728C91.7922 114.728 91.2907 114.332 91.2907 113.672H90.1029Z"
                fill="#C4D0EB" /> -->
                
        </g>
        
    </g>
    <text x="36" y="100" font-family="Arial" font-size="18" fill="white">Security</text>
    <text x="45" y="270" font-family="Arial" font-size="12" fill="white">Quality</text>
    <text x="30" y="285" font-family="Arial" font-size="12" fill="white">Management</text>
    <defs>
        <filter id="filter0_d_1147_51187" x="-3.66418" y="177.517" width="133.37" height="148.758"
            filterUnits="userSpaceOnUse" color-interpolation-filters="sRGB">
            <feFlood flood-opacity="0" result="BackgroundImageFix" />
            <feColorMatrix in="SourceAlpha" type="matrix" values="0 0 0 0 0 0 0 0 0 0 0 0 0 0 0 0 0 0 127 0"
                result="hardAlpha" />
            <feOffset dy="1.46642" />
            <feGaussianBlur stdDeviation="7.33209" />
            <feComposite in2="hardAlpha" operator="out" />
            <feColorMatrix type="matrix" values="0 0 0 0 0 0 0 0 0 0 0 0 0 0 0 0 0 0 0.1 0" />
            <feBlend mode="normal" in2="BackgroundImageFix" result="effect1_dropShadow_1147_51187" />
            <feBlend mode="normal" in="SourceGraphic" in2="effect1_dropShadow_1147_51187" result="shape" />
        </filter>
        <filter id="filter1_d_1147_51187" x="74.2423" y="16.6325" width="258.311" height="236.515"
            filterUnits="userSpaceOnUse" color-interpolation-filters="sRGB">
            <feFlood flood-opacity="0" result="BackgroundImageFix" />
            <feColorMatrix in="SourceAlpha" type="matrix" values="0 0 0 0 0 0 0 0 0 0 0 0 0 0 0 0 0 0 127 0"
                result="hardAlpha" />
            <feOffset dy="1.67577" />
            <feGaussianBlur stdDeviation="8.37883" />
            <feComposite in2="hardAlpha" operator="out" />
            <feColorMatrix type="matrix" values="0 0 0 0 0 0 0 0 0 0 0 0 0 0 0 0 0 0 0.1 0" />
            <feBlend mode="normal" in2="BackgroundImageFix" result="effect1_dropShadow_1147_51187" />
            <feBlend mode="normal" in="SourceGraphic" in2="effect1_dropShadow_1147_51187" result="shape" />
        </filter>
        <filter id="filter2_d_1147_51187" x="3.33582" y="1.51659" width="133.37" height="148.758"
            filterUnits="userSpaceOnUse" color-interpolation-filters="sRGB">
            <feFlood flood-opacity="0" result="BackgroundImageFix" />
            <feColorMatrix in="SourceAlpha" type="matrix" values="0 0 0 0 0 0 0 0 0 0 0 0 0 0 0 0 0 0 127 0"
                result="hardAlpha" />
            <feOffset dy="1.46642" />
            <feGaussianBlur stdDeviation="7.33209" />
            <feComposite in2="hardAlpha" operator="out" />
            <feColorMatrix type="matrix" values="0 0 0 0 0 0 0 0 0 0 0 0 0 0 0 0 0 0 0.1 0" />
            <feBlend mode="normal" in2="BackgroundImageFix" result="effect1_dropShadow_1147_51187" />
            <feBlend mode="normal" in="SourceGraphic" in2="effect1_dropShadow_1147_51187" result="shape" />
        </filter>
        <clipPath id="clip0_1147_51187">
            <rect width="323" height="322" fill="white" />
        </clipPath>
    </defs>
</svg>