
<svg width="500" height="350" viewBox="0 0 323 285" fill="none" xmlns="http://www.w3.org/2000/svg">
<g clip-path="url(#clip0_1147_51220)">
<g filter="url(#filter0_d_1147_51220)">
<rect x="53" y="-0.285645" width="245.403" height="230.094" rx="9.14145" fill="#4D7AE3" shape-rendering="crispEdges"/>
<circle cx="95.6238" cy="43.4818" r="12.9149" fill="#7C9DE5"/>
<rect x="116.669" y="32.0173" width="130.266" height="9.14145" rx="4.57072" fill="#7C9DE5"/>
<rect x="116.669" y="45.8048" width="58.2767" height="9.14145" rx="4.57072" fill="#7C9DE5"/>
<circle cx="95.6238" cy="91.0223" r="12.9149" fill="#7C9DE5"/>
<rect x="116.669" y="79.5579" width="130.266" height="9.14145" rx="4.57072" fill="#7C9DE5"/>
<rect x="116.669" y="93.3455" width="58.2767" height="9.14145" rx="4.57072" fill="#7C9DE5"/>
<circle cx="95.6238" cy="138.563" r="12.9149" fill="#7C9DE5"/>
<rect x="116.669" y="127.099" width="130.266" height="9.14145" rx="4.57072" fill="#7C9DE5"/>
<rect x="116.669" y="140.886" width="58.2767" height="9.14145" rx="4.57072" fill="#7C9DE5"/>
<circle cx="95.5926" cy="186.073" r="12.8836" fill="#DBF1FA"/>
<path d="M92.5057 185.84V187.1H94.9628V189.569H96.2221V187.1H98.6791V185.84H96.2221V183.383H94.9628V185.84H92.5057Z" fill="#4D7AE3"/>
<rect x="116.606" y="174.608" width="130.266" height="9.14145" rx="4.57072" fill="#DBF1FA"/>
<rect x="116.606" y="188.396" width="58.2767" height="9.14145" rx="4.57072" fill="#DBF1FA"/>
</g>
<g filter="url(#filter1_d_1147_51220)">
<rect x="226" y="192.714" width="86.1261" height="84.7372" rx="4.55474" fill="#B8E3F5" shape-rendering="crispEdges"/>
<g clip-path="url(#clip1_1147_51220)">
<path d="M259.302 223.458V217.041C259.321 215.78 259.589 214.534 260.09 213.376C260.591 212.219 261.316 211.171 262.222 210.294C263.129 209.417 264.2 208.727 265.373 208.265C266.547 207.802 267.801 207.575 269.062 207.598V207.598C270.323 207.575 271.577 207.802 272.75 208.265C273.924 208.727 274.995 209.417 275.902 210.294C276.808 211.171 277.533 212.219 278.034 213.376C278.535 214.534 278.803 215.78 278.822 217.041V223.458" stroke="#00597C" stroke-width="2.03337" stroke-linecap="round" stroke-linejoin="round"/>
<path d="M255.642 219.799H258.082C258.406 219.799 258.716 219.928 258.945 220.156C259.174 220.385 259.302 220.696 259.302 221.019V228.339C259.302 228.663 259.174 228.973 258.945 229.202C258.716 229.431 258.406 229.559 258.082 229.559H255.642C254.995 229.559 254.374 229.302 253.917 228.845C253.459 228.387 253.202 227.766 253.202 227.119V222.239C253.202 221.592 253.459 220.971 253.917 220.514C254.374 220.056 254.995 219.799 255.642 219.799V219.799Z" stroke="#00597C" stroke-width="2.03337" stroke-linecap="round" stroke-linejoin="round"/>
<path d="M282.483 229.559H280.043C279.719 229.559 279.409 229.431 279.18 229.202C278.951 228.973 278.823 228.663 278.823 228.339V221.019C278.823 220.695 278.951 220.385 279.18 220.156C279.409 219.927 279.719 219.799 280.043 219.799H282.483C283.13 219.799 283.751 220.056 284.208 220.514C284.666 220.971 284.923 221.592 284.923 222.239V227.119C284.923 227.766 284.666 228.387 284.208 228.844C283.751 229.302 283.13 229.559 282.483 229.559V229.559Z" stroke="#00597C" stroke-width="2.03337" stroke-linecap="round" stroke-linejoin="round"/>
<path d="M273.942 236.269C275.237 236.269 276.478 235.755 277.393 234.84C278.308 233.925 278.822 232.683 278.822 231.389V225.899" stroke="#00597C" stroke-width="2.03337" stroke-linecap="round" stroke-linejoin="round"/>
<path d="M273.943 236.269C273.943 237.078 273.621 237.854 273.049 238.426C272.477 238.998 271.702 239.319 270.893 239.319H267.233C266.424 239.319 265.648 238.998 265.076 238.426C264.504 237.854 264.183 237.078 264.183 236.269C264.183 235.46 264.504 234.685 265.076 234.113C265.648 233.541 266.424 233.219 267.233 233.219H270.893C271.702 233.219 272.477 233.541 273.049 234.113C273.621 234.685 273.943 235.46 273.943 236.269Z" stroke="#00597C" stroke-width="2.03337" stroke-linecap="round" stroke-linejoin="round"/>
</g>
<!-- <path d="M251.139 255.376C251.139 256.442 251.764 257.139 252.973 257.416L254.193 257.692C254.9 257.856 255.217 258.225 255.217 258.809C255.217 259.547 254.592 260.008 253.609 260.008C252.676 260.008 252.082 259.558 252.061 258.85H251.036C251.098 260.121 252.102 260.91 253.609 260.91C255.187 260.91 256.222 260.06 256.222 258.727C256.222 257.682 255.607 257.026 254.398 256.75L253.178 256.463C252.481 256.299 252.143 255.94 252.143 255.346C252.143 254.618 252.748 254.147 253.68 254.147C254.51 254.147 255.033 254.577 255.084 255.315H256.099C256.017 254.034 255.105 253.245 253.691 253.245C252.164 253.245 251.139 254.106 251.139 255.376ZM256.992 258.277C256.992 259.824 258.099 260.91 259.605 260.91C261.101 260.91 262.208 259.824 262.208 258.277C262.208 256.729 261.101 255.643 259.605 255.643C258.099 255.643 256.992 256.729 256.992 258.277ZM257.966 258.277C257.966 257.231 258.632 256.504 259.605 256.504C260.569 256.504 261.245 257.231 261.245 258.277C261.245 259.322 260.569 260.049 259.605 260.049C258.632 260.049 257.966 259.322 257.966 258.277ZM263.275 263.032H264.238V259.967C264.566 260.582 265.232 260.921 266.031 260.921C267.517 260.921 268.358 259.773 268.358 258.246C268.358 256.709 267.466 255.633 266.031 255.633C265.232 255.633 264.556 255.991 264.217 256.678L264.146 255.776H263.275V263.032ZM264.248 258.287C264.248 257.241 264.843 256.514 265.826 256.514C266.81 256.514 267.394 257.252 267.394 258.287C267.394 259.312 266.81 260.049 265.826 260.049C264.843 260.049 264.248 259.312 264.248 258.287ZM269.092 258.277C269.092 259.824 270.198 260.91 271.705 260.91C273.201 260.91 274.308 259.824 274.308 258.277C274.308 256.729 273.201 255.643 271.705 255.643C270.198 255.643 269.092 256.729 269.092 258.277ZM270.065 258.277C270.065 257.231 270.731 256.504 271.705 256.504C272.668 256.504 273.345 257.231 273.345 258.277C273.345 259.322 272.668 260.049 271.705 260.049C270.731 260.049 270.065 259.322 270.065 258.277ZM278.244 255.735C278.049 255.694 277.906 255.674 277.731 255.674C277.045 255.674 276.543 256.022 276.338 256.545L276.276 255.786H275.374V260.787H276.338V258.133C276.338 257.17 276.901 256.616 277.813 256.616H278.244V255.735ZM280.762 260.787V256.586H281.746V255.776H280.762V254.208H279.798V255.776H278.815V256.586H279.798V260.787H280.762ZM284.722 260.91C285.962 260.91 286.803 260.306 287.049 259.23H286.147C285.983 259.804 285.491 260.111 284.743 260.111C283.79 260.111 283.236 259.527 283.165 258.471L287.038 258.461V258.102C287.038 256.616 286.106 255.633 284.681 255.633C283.226 255.633 282.232 256.719 282.232 258.287C282.232 259.845 283.247 260.91 284.722 260.91ZM284.681 256.442C285.532 256.442 286.075 256.996 286.075 257.826H283.185C283.308 256.944 283.841 256.442 284.681 256.442Z" fill="#00597C"/> -->
</g>
<g filter="url(#filter2_d_1147_51220)">
<rect y="50.7144" width="76.5517" height="74" rx="5.10345" fill="#F7FBFF" shape-rendering="crispEdges"/>
<g clip-path="url(#clip2_1147_51220)">
<path d="M28.7988 83.8867V85.3448C28.7988 86.1183 29.1061 86.86 29.653 87.407C30.1999 87.9539 30.9416 88.2611 31.7151 88.2611H44.8382C45.6117 88.2611 46.3534 87.9539 46.9003 87.407C47.4472 86.86 47.7545 86.1183 47.7545 85.3448V83.8867" stroke="#4DBAE5" stroke-width="1.27586" stroke-linecap="round" stroke-linejoin="round"/>
<path d="M33.9023 74.4089L38.2767 69.3054L42.6511 74.4089" stroke="#4DBAE5" stroke-width="1.27586" stroke-linecap="round" stroke-linejoin="round"/>
<path d="M38.2764 69.3054V82.4286" stroke="#4DBAE5" stroke-width="1.27586" stroke-linecap="round" stroke-linejoin="round"/>
</g>
<rect x="12.7588" y="101.749" width="51.0345" height="5.00776" rx="2.50388" fill="#E0E0E0"/>
<rect x="12.7588" y="101.749" width="15.9483" height="5.10345" rx="2.55172" fill="#4DBAE5"/>
</g>
</g>
<text x="240" y="258" fill="#064561" font-size="16" font-family="Arial">Support</text>
<defs>
<filter id="filter0_d_1147_51220" x="30.1464" y="-20.8539" width="291.111" height="275.801" filterUnits="userSpaceOnUse" color-interpolation-filters="sRGB">
<feFlood flood-opacity="0" result="BackgroundImageFix"/>
<feColorMatrix in="SourceAlpha" type="matrix" values="0 0 0 0 0 0 0 0 0 0 0 0 0 0 0 0 0 0 127 0" result="hardAlpha"/>
<feOffset dy="2.28536"/>
<feGaussianBlur stdDeviation="11.4268"/>
<feComposite in2="hardAlpha" operator="out"/>
<feColorMatrix type="matrix" values="0 0 0 0 0 0 0 0 0 0 0 0 0 0 0 0 0 0 0.1 0"/>
<feBlend mode="normal" in2="BackgroundImageFix" result="effect1_dropShadow_1147_51220"/>
<feBlend mode="normal" in="SourceGraphic" in2="effect1_dropShadow_1147_51220" result="shape"/>
</filter>
<filter id="filter1_d_1147_51220" x="214.613" y="182.466" width="108.9" height="107.511" filterUnits="userSpaceOnUse" color-interpolation-filters="sRGB">
<feFlood flood-opacity="0" result="BackgroundImageFix"/>
<feColorMatrix in="SourceAlpha" type="matrix" values="0 0 0 0 0 0 0 0 0 0 0 0 0 0 0 0 0 0 127 0" result="hardAlpha"/>
<feOffset dy="1.13869"/>
<feGaussianBlur stdDeviation="5.69343"/>
<feComposite in2="hardAlpha" operator="out"/>
<feColorMatrix type="matrix" values="0 0 0 0 0 0 0 0 0 0 0 0 0 0 0 0 0 0 0.1 0"/>
<feBlend mode="normal" in2="BackgroundImageFix" result="effect1_dropShadow_1147_51220"/>
<feBlend mode="normal" in="SourceGraphic" in2="effect1_dropShadow_1147_51220" result="shape"/>
</filter>
<filter id="filter2_d_1147_51220" x="-12.7586" y="39.2316" width="102.069" height="99.5172" filterUnits="userSpaceOnUse" color-interpolation-filters="sRGB">
<feFlood flood-opacity="0" result="BackgroundImageFix"/>
<feColorMatrix in="SourceAlpha" type="matrix" values="0 0 0 0 0 0 0 0 0 0 0 0 0 0 0 0 0 0 127 0" result="hardAlpha"/>
<feOffset dy="1.27586"/>
<feGaussianBlur stdDeviation="6.37931"/>
<feComposite in2="hardAlpha" operator="out"/>
<feColorMatrix type="matrix" values="0 0 0 0 0 0 0 0 0 0 0 0 0 0 0 0 0 0 0.1 0"/>
<feBlend mode="normal" in2="BackgroundImageFix" result="effect1_dropShadow_1147_51220"/>
<feBlend mode="normal" in="SourceGraphic" in2="effect1_dropShadow_1147_51220" result="shape"/>
</filter>
<clipPath id="clip0_1147_51220">
<rect width="323" height="285" fill="white"/>
</clipPath>
<clipPath id="clip1_1147_51220">
<rect width="34.1606" height="34.1606" fill="white" transform="translate(251.982 206.379)"/>
</clipPath>
<clipPath id="clip2_1147_51220">
<rect width="20.4138" height="20.4138" fill="white" transform="translate(28.0693 68.5764)"/>
</clipPath>
</defs>
</svg>
