
<svg width="56" height="56" viewBox="0 0 56 56" fill="none" xmlns="http://www.w3.org/2000/svg">
<path d="M15.417 23.4539L24.3168 9.22834C24.6617 8.66607 25.1463 8.20272 25.7235 7.88342C26.3007 7.56412 26.9508 7.39975 27.6104 7.40634V7.40634C28.1299 7.38759 28.6478 7.47317 29.1337 7.65801C29.6195 7.84286 30.0634 8.12322 30.439 8.48253C30.8147 8.84184 31.1145 9.27281 31.3207 9.74996C31.5269 10.2271 31.6354 10.7408 31.6398 11.2606V21.4568H47.0217C47.59 21.4752 48.1481 21.6137 48.6591 21.8632C49.1701 22.1128 49.6225 22.4676 49.9865 22.9045C50.3506 23.3414 50.6181 23.8503 50.7713 24.398C50.9246 24.9456 50.9603 25.5194 50.8759 26.0818L48.0728 44.1617C47.9533 45.1279 47.4849 46.0172 46.7558 46.6624C46.0267 47.3076 45.0871 47.6643 44.1135 47.6655H21.1283C20.0341 47.6698 18.9541 47.4178 17.9748 46.9297L15.452 45.6683" stroke="#4D7AE3" stroke-width="3" stroke-linecap="round" stroke-linejoin="round"/>
<path d="M15.417 23.4539V45.5631" stroke="#4D7AE3" stroke-width="3" stroke-linecap="round" stroke-linejoin="round"/>
<path d="M7.11301 23.4539H15.4171V45.5631H7.11301C6.64837 45.5631 6.20276 45.3785 5.87421 45.05C5.54566 44.7214 5.36108 44.2758 5.36108 43.8112V25.2058C5.36108 24.7411 5.54566 24.2955 5.87421 23.967C6.20276 23.6384 6.64837 23.4539 7.11301 23.4539V23.4539Z" stroke="#4D7AE3" stroke-width="3" stroke-linecap="round" stroke-linejoin="round"/>
</svg>
