
<svg width="53" height="53" viewBox="0 0 53 53" fill="none" xmlns="http://www.w3.org/2000/svg">
<path d="M26.6409 0.034668C19.7452 0.034668 13.1319 2.7739 8.25586 7.64966C3.3801 12.5257 0.640869 19.1391 0.640869 26.0347C0.640869 32.9303 3.3801 39.5436 8.25586 44.4197C13.1319 49.2954 19.7453 52.0347 26.6409 52.0347C33.5365 52.0347 40.1498 49.2954 45.0259 44.4197C49.9016 39.5436 52.6409 32.9303 52.6409 26.0347C52.6409 21.4708 51.4395 16.9874 49.1576 13.0348C46.8757 9.08227 43.5936 5.80016 39.641 3.51823C35.6885 1.2363 31.205 0.0349651 26.6412 0.0349651L26.6409 0.034668ZM26.6409 48.5674C20.6648 48.5674 14.9336 46.1934 10.7073 41.9677C6.48154 37.742 4.1075 32.0105 4.1075 26.0341C4.1075 20.0576 6.48154 14.3268 10.7073 10.1005C14.933 5.87475 20.6644 3.5007 26.6409 3.5007C32.6173 3.5007 38.3482 5.87475 42.5745 10.1005C46.8002 14.3262 49.1742 20.0576 49.1742 26.0341C49.1742 32.0105 46.8002 37.7414 42.5745 41.9677C38.3488 46.1934 32.6173 48.5674 26.6409 48.5674ZM39.9012 35.1169C40.3717 35.5197 40.5918 36.1426 40.4789 36.7512C40.3655 37.3602 39.936 37.8624 39.3522 38.0686C38.768 38.2752 38.1184 38.1541 37.6479 37.7517L26.728 28.3919C25.5728 27.4037 24.9081 25.9598 24.9081 24.4397V8.70122C24.9081 8.08179 25.2385 7.50959 25.7747 7.20007C26.311 6.89055 26.9718 6.89055 27.508 7.20007C28.0443 7.50959 28.3747 8.08181 28.3747 8.70122V24.4397C28.3747 24.9465 28.5964 25.4279 28.9813 25.7571L39.9012 35.1169Z" fill="#4D7AE3"/>
</svg>
